<svg width="15" height="15" viewBox="0 0 15 15" fill="none" xmlns="http://www.w3.org/2000/svg">
<g id="ph:heart">
<path id="Vector" d="M10.4297 2.34375C9.21973 2.34375 8.16035 2.86406 7.5 3.74355C6.83965 2.86406 5.78027 2.34375 4.57031 2.34375C3.60716 2.34484 2.68377 2.72793 2.00273 3.40898C1.32168 4.09002 0.938586 5.01341 0.9375 5.97656C0.9375 10.0781 7.01895 13.398 7.27793 13.5352C7.34619 13.5719 7.42249 13.5911 7.5 13.5911C7.57751 13.5911 7.65381 13.5719 7.72207 13.5352C7.98105 13.398 14.0625 10.0781 14.0625 5.97656C14.0614 5.01341 13.6783 4.09002 12.9973 3.40898C12.3162 2.72793 11.3928 2.34484 10.4297 2.34375ZM7.5 12.5859C6.43008 11.9625 1.875 9.12246 1.875 5.97656C1.87593 5.26201 2.1602 4.57698 2.66547 4.07172C3.17073 3.56645 3.85576 3.28218 4.57031 3.28125C5.70996 3.28125 6.6668 3.88828 7.06641 4.86328C7.10172 4.94925 7.1618 5.02279 7.239 5.07454C7.31621 5.12629 7.40706 5.15392 7.5 5.15392C7.59294 5.15392 7.68379 5.12629 7.761 5.07454C7.8382 5.02279 7.89828 4.94925 7.93359 4.86328C8.3332 3.88652 9.29004 3.28125 10.4297 3.28125C11.1442 3.28218 11.8293 3.56645 12.3345 4.07172C12.8398 4.57698 13.1241 5.26201 13.125 5.97656C13.125 9.11777 8.56875 11.9619 7.5 12.5859Z" fill="#818181"/>
</g>
</svg>
