<svg width="15" height="15" viewBox="0 0 15 15" fill="none" xmlns="http://www.w3.org/2000/svg">
<g id="ph:heart-fill">
<path id="Vector" d="M14.0625 5.97656C14.0625 10.0781 7.98105 13.398 7.72207 13.5352C7.65381 13.5719 7.57751 13.5911 7.5 13.5911C7.42249 13.5911 7.34619 13.5719 7.27793 13.5352C7.01895 13.398 0.9375 10.0781 0.9375 5.97656C0.938586 5.01341 1.32168 4.09002 2.00273 3.40898C2.68377 2.72793 3.60716 2.34484 4.57031 2.34375C5.78027 2.34375 6.83965 2.86406 7.5 3.74355C8.16035 2.86406 9.21973 2.34375 10.4297 2.34375C11.3928 2.34484 12.3162 2.72793 12.9973 3.40898C13.6783 4.09002 14.0614 5.01341 14.0625 5.97656Z" fill="#FF280A"/>
</g>
</svg>
